<svg width="1450" height="513" viewBox="0 0 1450 513" fill="none" xmlns="http://www.w3.org/2000/svg">
<g filter="url(#filter0_b_0_1)">
<path fill-rule="evenodd" clip-rule="evenodd" d="M412 14V0H1020V14H1019.76L981 61.8687V140H1285V153.81V154H1284.85L1254.48 191.497L1254 191.107V499H1450V513H0V499H176V192.107L175.518 192.497L145.153 155H145V154.81V141H448V64V59.2668L412 14.8105L413.001 14H412ZM981 154H1266.83L1248.21 177H981V154ZM1247 191H1182V214.158L1203 214.02V214H1210V499H1247V191ZM1175 191H1159V499H1175V191ZM1152 191H1060V262.005L1076 262.079V228.501L1075.99 228.501C1075.99 228.279 1075.99 228.057 1076 227.835V227H1076.03C1076.42 219.989 1079.38 213.347 1084.38 208.369C1089.73 203.038 1096.98 200.053 1104.53 200.071C1112.08 200.09 1119.31 203.11 1124.64 208.468C1129.82 213.674 1132.78 220.673 1132.92 228H1133V262.344L1152 262.432V191ZM1126.01 228C1125.87 222.501 1123.63 217.256 1119.74 213.346C1115.71 209.289 1110.23 207.001 1104.51 206.987C1098.79 206.973 1093.31 209.234 1089.25 213.272C1085.56 216.951 1083.33 221.831 1082.96 227H1083V262.111L1126 262.311V228H1126.01ZM1053 191H1036V425.97L1053 426.049V191ZM1029 191H981V457V471V499H1000V214H1007V214.152L1029 214.006V191ZM1007 221.152L1029 221.006V499H1007V221.152ZM1053 499H1036V432.97L1053 433.049V499ZM1182 499V221.158L1203 221.02V499H1182ZM1076 269.079L1060 269.005V320.088L1076 320.162V269.079ZM1083 320.195V269.112L1126 269.311V320.394L1083 320.195ZM1076 327.162L1060 327.088V380.088L1076 380.162V327.162ZM1083 380.195V327.195L1126 327.395V380.394L1083 380.195ZM1076 387.162L1060 387.088V426.082L1076 426.156V387.162ZM1083 387.195L1126 387.395V426.389L1083 426.189V387.195ZM1076 433.156L1060 433.082V499H1076V433.156ZM1083 499V433.189L1126 433.389V499H1083ZM1152 269.432L1133 269.344V320.427L1152 320.515V269.432ZM1152 327.515L1133 327.427V380.427L1152 380.515V327.515ZM1133 426.421V387.427L1152 387.515V426.509L1133 426.421ZM1152 433.509L1133 433.421V499H1152V433.509ZM967 471V499H908V471H915H921H967ZM894 471V499H862V471H894ZM848 330V499H826V413H825.795C825.652 399.491 822.965 386.125 817.867 373.603C812.545 360.527 804.699 348.628 794.778 338.585C784.857 328.542 773.055 320.551 760.046 315.069C747.036 309.587 733.075 306.721 718.958 306.635C704.841 306.549 690.845 309.244 677.77 314.566C664.695 319.889 652.796 327.735 642.753 337.656C632.71 347.577 624.719 359.379 619.237 372.388C614.855 382.786 612.145 393.792 611.189 405H611V407.59C610.881 409.548 610.815 411.51 610.803 413.476L611 413.477V499H586V330V316V285H848V316V330ZM815 414.724V499H622V406.695C622.798 396.36 625.256 386.206 629.293 376.626C634.219 364.937 641.398 354.333 650.422 345.419C659.445 336.505 670.137 329.456 681.885 324.674C693.633 319.891 706.207 317.47 718.891 317.547C731.575 317.625 744.119 320.2 755.808 325.125C767.497 330.051 778.101 337.231 787.015 346.254C795.929 355.278 802.978 365.969 807.76 377.717C812.542 389.465 814.964 402.04 814.886 414.724L815 414.724ZM572 471V499H536V471H572ZM522 471V499H462V471H522ZM448 192V499H430V215H423V215.152L401 215.006V192H448ZM423 222.152V499H401V222.006L423 222.152ZM394 433.97V499H377V434.049L394 433.97ZM370 434.082V499H354V434.156L370 434.082ZM347 434.189V499H304V434.389L347 434.189ZM297 434.421V499H277.934V434.51L297 434.421ZM271 192V499H254.934V192H271ZM248 222.158V499H227V222.02L248 222.158ZM220 215V499H182.934V192H248V215.158L227 215.02V215H224.046H220ZM429.358 14H1001.75L972.596 50H967H458.511L429.358 14ZM163.168 155L181.793 178H448V155H163.168ZM967 64H462V112H525H536H539H572H586H644.101C653.17 103.431 663.733 96.5832 675.275 91.8024C687.711 86.6512 701.039 84 714.5 84C727.961 84 741.289 86.6512 753.725 91.8024C765.267 96.5832 775.83 103.431 784.899 112H908H911H913H922H967V64ZM797.241 126C802.048 132.575 806.066 139.715 809.198 147.275C809.435 147.848 809.667 148.423 809.894 149H866V126H797.241ZM814.27 163C814.854 165.481 815.346 167.982 815.744 170.5C816.084 172.656 816.356 174.824 816.559 177H866V163H814.27ZM612.441 177C612.644 174.824 612.916 172.656 613.256 170.5C613.548 168.658 613.889 166.824 614.28 165H586V177H612.441ZM618.344 151C618.805 149.75 619.292 148.508 619.802 147.275C622.934 139.715 626.952 132.575 631.759 126H586V151H618.344ZM967 126H922V177H943V186.527L943.057 186.573L943 186.643V187H942.711L907.89 230H908H967V126ZM890.19 230L890 229.846L924.696 187H922H908H539H525H503.788L538.608 230H890.19ZM486 177V186.987L485.857 187.103L520.594 230H462V192V178V126H525V151V165V177H486ZM967 244H908V350H967V244ZM967 364H908V457H915H921H967V364ZM894 244H536V316H572V271H576H586H848H861H862V316H894V244ZM894 330H862V457H894V330ZM572 330V457H536V330H572ZM522 244H462V350H522V244ZM522 364H462V457H522V364ZM277.934 263.432V192H370V263.005L354 263.079V229.501L354.009 229.501C354.009 229.282 354.006 229.063 354 228.845V228H353.966C353.58 220.989 350.618 214.347 345.621 209.369C340.269 204.038 333.02 201.053 325.47 201.071C317.919 201.09 310.685 204.11 305.359 209.468C300.184 214.674 297.222 221.673 297.075 229H297V263.344L277.934 263.432ZM303.986 229H304V263.311L347 263.111V228H347.043C346.667 222.831 344.441 217.951 340.748 214.272C336.695 210.234 331.205 207.973 325.487 207.987C319.768 208.001 314.29 210.289 310.256 214.346C306.369 218.256 304.131 223.501 303.986 229ZM377 427.049V192H394V426.97L377 427.049ZM880 126H908V149H880V126ZM880 163H908V177H880V163ZM539 177H572V165H539V177ZM539 151H572V126H539V151ZM304 270.311L347 270.112V321.195L304 321.394V270.311ZM370 328.088L354 328.162V381.162L370 381.088V328.088ZM347 381.195V328.195L304 328.395V381.394L347 381.195ZM304 388.395L347 388.195V427.189L304 427.389V388.395ZM370 427.082L354 427.156V388.162L370 388.088V427.082ZM370 321.088L354 321.162V270.079L370 270.005V321.088ZM277.934 321.516V270.432L297 270.344V321.427L277.934 321.516ZM297 328.427V381.427L277.934 381.516V328.516L297 328.427ZM297 388.427L277.934 388.516V427.51L297 427.421V388.427ZM629.493 170.5C630.593 164.653 632.297 158.921 634.584 153.398C638.931 142.903 645.303 133.368 653.335 125.335C661.368 117.303 670.903 110.931 681.398 106.584C691.893 102.237 703.141 100 714.5 100C725.859 100 737.107 102.237 747.602 106.584C758.097 110.931 767.632 117.303 775.665 125.335C783.697 133.368 790.069 142.903 794.416 153.398C796.703 158.921 798.407 164.653 799.507 170.5H714.5H629.493Z" fill="url(#paint0_linear_0_1)" fill-opacity="0.06"/>
</g>
<defs>
<filter id="filter0_b_0_1" x="-4" y="-4" width="1458" height="521" filterUnits="userSpaceOnUse" color-interpolation-filters="sRGB">
<feFlood flood-opacity="0" result="BackgroundImageFix"/>
<feGaussianBlur in="BackgroundImageFix" stdDeviation="2"/>
<feComposite in2="SourceAlpha" operator="in" result="effect1_backgroundBlur_0_1"/>
<feBlend mode="normal" in="SourceGraphic" in2="effect1_backgroundBlur_0_1" result="shape"/>
</filter>
<linearGradient id="paint0_linear_0_1" x1="725" y1="0" x2="725" y2="369" gradientUnits="userSpaceOnUse">
<stop stop-color="white"/>
<stop offset="1" stop-color="#121212"/>
</linearGradient>
</defs>
</svg>
