<svg width="362" height="98" viewBox="0 0 362 98" fill="none" xmlns="http://www.w3.org/2000/svg">
<path d="M58.3633 21.5352H58.9785V78H47.9043V54.0059L32.0449 77.0771H31.9766L16.083 54.0059V78H5.00879V21.5352H5.62402L32.0107 57.9365L58.3633 21.5352ZM79.6572 66.9941H101.806V78H68.583V22.9023H79.6572V66.9941ZM124.535 79.0938C115.512 79.0938 108.847 75.334 105.155 68.498L114.008 62.2773C116.435 66.1738 119.955 67.9512 124.706 67.9512C129.901 67.9512 133.388 65.832 133.388 62.8926C133.388 58.8594 126.791 55.6807 121.015 52.8096C114.828 49.7334 108.026 46.3496 108.026 37.5654C108.026 28.0293 116.093 21.7402 126.21 21.7402C133.729 21.7402 139.95 24.8506 142.445 31.5156L134.276 37.2236C132.636 33.9424 129.457 32.6094 126.381 32.6094C122.245 32.6094 119.169 35.002 119.169 37.8389C119.169 41.1201 123.339 42.248 129.662 45.2217C138.788 49.5283 144.53 54.1768 144.53 62.6533C144.53 72.7021 136.327 79.0938 124.535 79.0938ZM185.443 78L181.957 70.3096H159.911L156.391 78H144.428L170.746 21.5352H171.088L197.44 78H185.443ZM164.218 60.876H177.65L170.951 46.1445L164.218 60.876ZM249.906 79.0596C234.013 79.0596 221.093 65.9688 221.093 50.4854C221.093 34.9336 234.184 21.7744 249.701 21.7744C256.879 21.877 263.236 24.7139 269.013 30.2852L262.621 39.001C258.861 35.3096 254.35 33.0537 249.599 33.0537C240.746 33.0537 232.304 40.915 232.304 50.5537C232.304 60.3633 241.054 67.9512 249.564 67.9512C254.623 67.9512 258.998 65.251 262.655 61.6621L269.013 70.6172C264.159 75.4365 258.246 79.0596 249.906 79.0596ZM308.456 33.8057H286.308V44.9141H305.312V55.9541H286.308V78.0684H275.233V22.7656H308.456V33.8057ZM330.707 22.9023C348.515 22.8682 359.384 33.3271 359.384 50.5195C359.384 67.6094 348.515 78 330.707 78H314.677V22.9365L330.707 22.9023ZM330.775 66.96C341.61 66.96 348.207 60.7393 348.207 50.4854C348.207 40.1631 341.576 33.874 330.673 33.874H325.717V66.96H330.775Z" fill="url(#paint0_linear_295_40)"/>
<defs>
<linearGradient id="paint0_linear_295_40" x1="0" y1="49" x2="362" y2="49" gradientUnits="userSpaceOnUse">
<stop stop-color="#E71A64"/>
<stop offset="0.0001" stop-color="#E71A64"/>
<stop offset="0.485" stop-color="#FCC018"/>
<stop offset="1" stop-color="#1BB8D1"/>
</linearGradient>
</defs>
</svg>
