<svg width="833" height="738" viewBox="0 0 833 738" fill="none" xmlns="http://www.w3.org/2000/svg">
<g clip-path="url(#clip0_335_55)">
<g opacity="0.4" filter="url(#filter0_f_335_55)">
<path d="M491.992 476.539L956.713 377.873L960.69 -176.113L139.878 -66.003L622.631 109.467L491.992 476.539Z" fill="url(#paint0_linear_335_55)"/>
<path d="M491.992 476.539L956.713 377.873L960.69 -176.113L139.878 -66.003L622.631 109.467L491.992 476.539Z" fill="url(#paint1_linear_335_55)" stroke="black"/>
<path d="M491.992 476.539L956.713 377.873L960.69 -176.113L139.878 -66.003L622.631 109.467L491.992 476.539Z" fill="url(#paint2_linear_335_55)" stroke="url(#paint3_linear_335_55)"/>
</g>
</g>
<defs>
<filter id="filter0_f_335_55" x="-110.293" y="-426.685" width="1321.49" height="1153.9" filterUnits="userSpaceOnUse" color-interpolation-filters="sRGB">
<feFlood flood-opacity="0" result="BackgroundImageFix"/>
<feBlend mode="normal" in="SourceGraphic" in2="BackgroundImageFix" result="shape"/>
<feGaussianBlur stdDeviation="125" result="effect1_foregroundBlur_335_55"/>
</filter>
<linearGradient id="paint0_linear_335_55" x1="135.917" y1="504.093" x2="734.543" y2="-145.907" gradientUnits="userSpaceOnUse">
<stop stop-color="#1400FF"/>
<stop offset="0.236071" stop-color="#E71A64"/>
<stop offset="0.680844" stop-color="#1BB8D1"/>
<stop offset="1" stop-color="#FCC018"/>
</linearGradient>
<linearGradient id="paint1_linear_335_55" x1="135.917" y1="504.093" x2="734.543" y2="-145.907" gradientUnits="userSpaceOnUse">
<stop stop-color="#1400FF"/>
<stop offset="0.236071" stop-color="#E71A64"/>
<stop offset="0.680844" stop-color="#1BB8D1"/>
<stop offset="1" stop-color="#FCC018"/>
</linearGradient>
<linearGradient id="paint2_linear_335_55" x1="135.917" y1="504.093" x2="734.543" y2="-145.907" gradientUnits="userSpaceOnUse">
<stop stop-color="#1400FF"/>
<stop offset="0.236071" stop-color="#E71A64"/>
<stop offset="0.680844" stop-color="#1BB8D1"/>
<stop offset="1" stop-color="#FCC018"/>
</linearGradient>
<linearGradient id="paint3_linear_335_55" x1="545.991" y1="476.927" x2="550.701" y2="-179.057" gradientUnits="userSpaceOnUse">
<stop stop-color="white"/>
<stop offset="1" stop-color="white" stop-opacity="0"/>
</linearGradient>
<clipPath id="clip0_335_55">
<rect width="833" height="738" fill="white"/>
</clipPath>
</defs>
</svg>
